<?xml version="1.0" encoding="iso-8859-1"?>
<!-- Uploaded to: SVG Repo, www.svgrepo.com, Generator: SVG Repo Mixer Tools -->
<svg height="800px" width="800px" version="1.1" id="Layer_1" xmlns="http://www.w3.org/2000/svg" xmlns:xlink="http://www.w3.org/1999/xlink" 
	 viewBox="0 0 512.001 512.001" xml:space="preserve">
<g>
	<path style="fill:#ECE8D8;" d="M429.636,511.753l-56.355-9.393c-9.587-1.598-19.262-2.666-29.696-4.511
		c-14.257-2.516-28.743-3.505-43.229-3.505h-93.078c-16.049,0-32.018,1.598-47.819,4.378c-7.627,1.342-15.651,2.313-23.623,3.637
		l-53.363,8.898c-13.577,2.26-24.408-11.193-19.297-23.976l25.962-63.559c-10.831-114.211-10.69-226.745,0-335.448l0,0L58.78,24.231
		c-5.35-13.365,6.7-27.171,20.674-23.684l47.148,18.026c21.001,5.252,42.575,7.91,64.23,7.91H319.83
		c21.654,0,43.229-2.657,64.229-7.91l48.499-18.026c13.286-3.319,25.123,9.084,21.195,22.201l-29.166,65.527l0,0
		c13.197,111.263,13.18,223.709,0,335.448l24.858,65.545C453.206,501.786,442.533,513.898,429.636,511.753"/>
	<g>
		<path style="fill:#FEC24C;" d="M145.758,379.588c-4.873,0-8.828-3.955-8.828-8.828s3.955-8.828,8.828-8.828
			c4.873,0,8.828,3.955,8.828,8.828S150.631,379.588,145.758,379.588"/>
		<path style="fill:#FEC24C;" d="M172.241,406.07c-4.873,0-8.828-3.955-8.828-8.828s3.955-8.828,8.828-8.828
			c4.873,0,8.828,3.955,8.828,8.828S177.114,406.07,172.241,406.07"/>
		<path style="fill:#FEC24C;" d="M163.414,441.381c-4.873,0-8.828-3.955-8.828-8.828c0-4.873,3.955-8.828,8.828-8.828
			c4.873,0,8.828,3.955,8.828,8.828C172.241,437.426,168.286,441.381,163.414,441.381"/>
		<path style="fill:#FEC24C;" d="M145.758,467.864c-4.873,0-8.828-3.955-8.828-8.828c0-4.873,3.955-8.828,8.828-8.828
			c4.873,0,8.828,3.955,8.828,8.828C154.586,463.909,150.631,467.864,145.758,467.864"/>
		<path style="fill:#FEC24C;" d="M145.758,414.898c-4.873,0-8.828-3.955-8.828-8.828c0-4.873,3.955-8.828,8.828-8.828
			c4.873,0,8.828,3.955,8.828,8.828C154.586,410.943,150.631,414.898,145.758,414.898"/>
	</g>
	<polygon style="fill:#C9C3A7;" points="159.759,220.691 353.966,220.691 353.966,79.45 159.759,79.45 	"/>
	<g>
		<path style="fill:#ECE8D8;" d="M283.345,132.415H230.38c-4.882,0-8.828-3.946-8.828-8.828s3.946-8.828,8.828-8.828h52.966
			c4.882,0,8.828,3.946,8.828,8.828S288.227,132.415,283.345,132.415"/>
		<path style="fill:#ECE8D8;" d="M309.828,176.553H203.897c-4.882,0-8.828-3.946-8.828-8.828s3.946-8.828,8.828-8.828h105.931
			c4.882,0,8.828,3.946,8.828,8.828S314.71,176.553,309.828,176.553"/>
	</g>
	<polygon style="fill:#C9C3A7;" points="189.896,335.45 163.414,326.622 128.103,344.277 136.931,308.967 154.586,273.657 
		172.241,291.312 216.379,282.484 	"/>
	<path style="fill:#FEC24C;" d="M163.414,353.105c-4.882,0-8.828-3.946-8.828-8.828v-17.655c0-4.882,3.946-8.828,8.828-8.828
		c4.882,0,8.828,3.946,8.828,8.828v17.655C172.241,349.159,168.295,353.105,163.414,353.105"/>
</g>
</svg>